<svg width="277" height="325" viewBox="0 0 277 325" fill="none" xmlns="http://www.w3.org/2000/svg">
<path d="M238.218 72.623C206.283 47.5429 163.054 72.623 121.054 125.401C79.0544 178.179 59.0837 155.968 23.3806 179.229C-12.3225 202.491 -21.8719 297.78 103.918 288.516C229.707 279.252 321.703 138.098 238.218 72.623Z" fill="#F0F0F0"/>
<path d="M277 324.796C277 324.906 216.443 325 141.766 325C67.0895 325 6.50586 324.906 6.50586 324.796C6.50586 324.686 67.0547 324.592 141.766 324.592C216.478 324.592 277 324.694 277 324.796Z" fill="#263238"/>
<path d="M217.995 228.849C204.521 220.392 201.469 204.694 202.001 190.578C202.088 188.227 201.8 185.735 203.047 183.673C204.294 181.612 207.207 180.194 209.553 181.181C211.498 182.004 212.344 184.042 213.434 185.727C214.888 187.971 217.02 189.8 219.582 191.002C221.248 191.785 223.315 192.256 224.963 191.441C227.23 190.32 227.492 187.522 227.474 185.17C227.474 180.797 227.445 176.429 227.387 172.066C227.23 169.723 227.495 167.373 228.172 165.106C228.983 162.88 230.788 160.819 233.256 160.192C235.724 159.565 238.803 160.858 239.361 163.147C239.457 164.116 239.483 165.09 239.439 166.063C239.509 167.042 240.015 168.116 241.035 168.414C242.056 168.712 243.12 168.03 243.904 167.34C246.59 164.989 248.422 161.924 250.122 158.899C251.823 155.874 253.489 152.762 255.93 150.184C258.372 147.605 261.747 145.559 265.523 145.364C269.299 145.168 273.233 147.252 274.174 150.544C275.116 153.836 272.98 157.198 270.686 159.871C267.225 163.838 263.145 167.336 258.573 170.256C257.68 170.694 256.968 171.378 256.541 172.207C255.974 173.775 257.622 175.342 259.34 175.836C261.285 176.416 263.395 176.236 265.445 176.455C267.494 176.675 269.674 177.474 270.451 179.198C271.515 181.597 269.282 184.105 267.093 185.75C262.698 189.042 257.707 191.632 252.337 193.408C250.419 194.035 248.404 194.591 246.852 195.798C245.3 197.005 244.375 199.113 245.308 200.767C246.242 202.421 248.64 202.946 250.654 202.609C252.669 202.272 254.457 201.3 256.375 200.65C259.959 199.435 264.582 199.654 266.84 202.437C267.54 203.395 267.983 204.486 268.134 205.624C268.286 206.763 268.141 207.917 267.712 208.997C266.839 211.145 265.496 213.115 263.762 214.789C258.05 220.922 250.629 225.582 242.256 228.293C233.945 230.879 226.245 231.584 217.986 228.865" fill="#F37A20"/>
<path d="M270.337 147.299C270.337 147.299 270.259 147.378 270.084 147.519L269.308 148.138C268.628 148.687 267.625 149.486 266.36 150.544C262.775 153.536 259.446 156.766 256.401 160.208C254.457 162.379 252.442 164.84 250.297 167.512C248.151 170.185 245.936 173.069 243.739 176.134C241.396 179.365 239.25 182.709 237.311 186.15C236.3 187.945 235.41 189.818 234.495 191.73L231.791 197.569C228.228 204.924 225.124 212.452 222.495 220.118C220.377 226.39 218.917 232.827 218.134 239.344C217.627 243.741 217.545 248.171 217.89 252.581C218.03 254.149 218.16 255.348 218.282 256.163C218.335 256.555 218.37 256.868 218.405 257.096V257.417C218.367 257.315 218.341 257.21 218.326 257.103C218.282 256.876 218.23 256.57 218.16 256.179C218.003 255.395 217.838 254.156 217.681 252.589C217.26 248.17 217.289 243.726 217.768 239.312C218.502 232.768 219.93 226.301 222.032 220C224.64 212.313 227.735 204.766 231.303 197.397L234.076 191.581C234.992 189.677 235.89 187.788 236.91 185.985C238.862 182.534 241.026 179.182 243.39 175.946C245.622 172.811 247.872 169.973 249.991 167.324C252.111 164.675 254.16 162.199 256.096 160.035C259.172 156.603 262.546 153.395 266.186 150.442C267.477 149.4 268.506 148.616 269.203 148.091L270.014 147.503C270.114 147.425 270.222 147.357 270.337 147.299Z" fill="#263238"/>
<path d="M237.024 185.97C236.901 185.647 236.816 185.313 236.771 184.974C236.631 184.324 236.474 183.407 236.291 182.216C235.916 179.864 235.532 176.643 235.122 173.077C234.713 169.511 234.25 166.282 233.867 163.954C233.666 162.794 233.492 161.862 233.37 161.211C233.274 160.878 233.225 160.536 233.221 160.192C233.371 160.506 233.48 160.835 233.544 161.172C233.736 161.815 233.954 162.739 234.198 163.907C234.695 166.258 235.183 169.456 235.593 173.03C236.003 176.604 236.352 179.739 236.622 182.176C236.753 183.274 236.867 184.206 236.954 184.951C237.022 185.287 237.045 185.629 237.024 185.97Z" fill="#263238"/>
<path d="M270.581 180.343C270.157 180.426 269.725 180.473 269.291 180.484C268.419 180.554 267.18 180.648 265.645 180.805C262.576 181.103 258.355 181.651 253.724 182.435C249.093 183.219 244.933 184.105 241.942 184.786C240.451 185.131 239.247 185.445 238.454 185.656C238.03 185.792 237.592 185.886 237.146 185.939C237.549 185.756 237.969 185.607 238.401 185.492C239.221 185.233 240.407 184.873 241.89 184.489C244.864 183.705 249.023 182.772 253.672 181.973C257.609 181.296 261.582 180.799 265.576 180.484C267.119 180.366 268.366 180.319 269.238 180.303C269.686 180.276 270.136 180.289 270.581 180.343Z" fill="#263238"/>
<path d="M222.46 219.452C222.367 219.338 222.291 219.215 222.233 219.083L221.658 217.994C221.16 217.046 220.489 215.643 219.687 213.926C218.065 210.478 215.998 205.65 213.8 200.289C211.602 194.928 209.579 190.1 208.044 186.613C207.294 184.92 206.675 183.532 206.213 182.498L205.725 181.377C205.657 181.248 205.61 181.111 205.585 180.969C205.678 181.083 205.754 181.207 205.812 181.338L206.387 182.427C206.876 183.376 207.556 184.779 208.358 186.495C209.98 189.943 212.047 194.771 214.245 200.132C216.443 205.493 218.466 210.321 220.001 213.809C220.751 215.502 221.37 216.889 221.823 217.924C222.024 218.37 222.19 218.707 222.32 219.044C222.388 219.174 222.435 219.311 222.46 219.452Z" fill="#263238"/>
<path d="M267.006 206.543C266.866 206.615 266.717 206.671 266.561 206.708L265.27 207.1L260.5 208.487C256.471 209.663 250.907 211.34 244.803 213.19C238.698 215.039 233.108 216.685 229.053 217.782C227.03 218.339 225.381 218.762 224.239 219.044L222.922 219.35C222.769 219.394 222.611 219.423 222.451 219.436C222.591 219.364 222.74 219.309 222.896 219.272L224.187 218.88L228.957 217.492C232.986 216.317 238.55 214.64 244.654 212.79C250.759 210.94 256.34 209.294 260.396 208.197C262.427 207.641 264.067 207.217 265.218 206.935L266.535 206.63C266.688 206.586 266.846 206.557 267.006 206.543Z" fill="#263238"/>
<path d="M248.832 16.4279L244.34 17.87L242.413 12.5954C238.872 2.86896 227.588 -2.29599 217.219 0.987945C206.85 4.27188 201.329 14.9388 204.87 24.6652L206.797 29.9399L202.289 31.3898C200.569 31.9891 199.173 33.1608 198.39 34.6613C197.607 36.1618 197.498 37.8757 198.085 39.4468L210.582 73.7674C210.841 74.5452 211.272 75.2681 211.849 75.8933C212.425 76.5185 213.135 77.0332 213.938 77.4068C214.74 77.7804 215.617 78.0052 216.518 78.0681C217.419 78.1309 218.324 78.0303 219.181 77.7724L265.724 62.8105C267.466 62.2123 268.882 61.0302 269.674 59.513C270.466 57.9957 270.572 56.2615 269.971 54.6752L257.465 20.3545C257.199 19.579 256.762 18.8595 256.18 18.2392C255.597 17.6188 254.882 17.1102 254.076 16.7437C253.27 16.3773 252.391 16.1604 251.49 16.1062C250.589 16.0519 249.685 16.1613 248.832 16.4279ZM213.355 21.9142C212.401 19.3852 212.572 16.6223 213.833 14.2043C215.095 11.7863 217.349 9.9009 220.123 8.94306C221.492 8.52189 222.942 8.353 224.386 8.44646C225.83 8.53992 227.238 8.89382 228.527 9.48704C229.815 10.0803 230.957 10.9006 231.885 11.8992C232.813 12.8978 233.508 14.0542 233.928 15.2993L235.846 20.574L215.274 27.1889L213.355 21.9142ZM239.518 52.3709L242.71 61.1333C242.768 61.309 242.749 61.4982 242.657 61.6617C242.564 61.8252 242.405 61.9503 242.213 62.0111L237.739 63.4454C237.561 63.4897 237.37 63.4705 237.208 63.3916C237.045 63.3127 236.923 63.1803 236.867 63.0222L233.649 54.299C231.874 54.2121 230.172 53.6401 228.769 52.6596C227.366 51.6791 226.33 50.3369 225.8 48.8127C225.041 46.7976 225.18 44.5969 226.186 42.6715C227.192 40.746 228.988 39.245 231.198 38.4828C232.289 38.1478 233.444 38.0136 234.594 38.0882C235.744 38.1629 236.866 38.4448 237.892 38.9173C238.918 39.3898 239.828 40.0431 240.567 40.8383C241.307 41.6335 241.86 42.5543 242.195 43.5458C242.756 45.0942 242.803 46.756 242.329 48.3277C241.855 49.8994 240.881 51.3127 239.526 52.3944L239.518 52.3709Z" fill="#F37A20"/>
<path d="M244.14 17.776C244.14 17.8857 235.812 20.6994 225.451 24.046C215.091 27.3927 206.64 30.0809 206.597 30.0026C206.553 29.9242 214.925 27.087 225.294 23.7325C235.663 20.378 244.096 17.6741 244.14 17.776Z" fill="#263238"/>
<path d="M254.029 19.218C254.068 19.286 254.1 19.3568 254.125 19.4296C254.195 19.5864 254.273 19.7902 254.378 20.041C254.605 20.6131 254.919 21.4047 255.311 22.3922L258.66 31.1546C260.055 34.8696 261.721 39.2743 263.57 44.1649C264.442 46.6181 265.471 49.1731 266.43 51.8614C266.944 53.2467 267.166 54.7059 267.084 56.1642C267.01 56.9227 266.77 57.6605 266.378 58.3352C265.959 59.0077 265.399 59.6012 264.73 60.083C263.382 60.9669 261.887 61.6521 260.3 62.1129L255.808 63.5629L247.306 66.2982L232.907 70.9067L223.184 73.979L220.567 74.7627L219.87 74.9665C219.795 74.9963 219.716 75.0149 219.634 75.0214C219.634 75.0214 219.704 75.0214 219.852 74.9273L220.533 74.6844L223.149 73.7987L232.82 70.601L247.192 65.8985L255.678 63.1396L260.169 61.6819C261.711 61.2398 263.163 60.5754 264.468 59.7146C265.091 59.2676 265.612 58.7167 266.003 58.0923C266.372 57.4682 266.595 56.7826 266.657 56.078C266.737 54.6729 266.524 53.2667 266.029 51.932C265.087 49.2672 264.093 46.6886 263.195 44.2355C261.381 39.337 259.707 34.9166 258.381 31.2016C257.055 27.4866 255.939 24.5005 255.172 22.4001C254.805 21.3733 254.526 20.5739 254.3 19.9939L254.09 19.3669C254.064 19.3194 254.044 19.2695 254.029 19.218Z" fill="#263238"/>
<path d="M229.471 8.41001C229.471 8.41001 229.009 8.20624 228.154 7.89273C226.936 7.47207 225.648 7.2389 224.343 7.20303C222.41 7.14345 220.486 7.47002 218.71 8.15921C216.55 9.0174 214.703 10.4055 213.381 12.1642C212.051 13.9179 211.337 15.9903 211.332 18.1129C211.35 19.8526 211.644 21.5812 212.204 23.2465C212.658 24.6729 213.128 25.8094 213.442 26.601C213.628 27.003 213.779 27.417 213.896 27.8393C213.648 27.4634 213.441 27.0671 213.277 26.6558C212.919 25.8721 212.405 24.7591 211.899 23.3249C211.278 21.6421 210.94 19.8854 210.896 18.1129C210.873 15.9101 211.603 13.7541 212.989 11.9369C214.357 10.114 216.279 8.68295 218.527 7.81436C220.358 7.12139 222.342 6.8157 224.326 6.92088C225.659 6.98192 226.968 7.26079 228.189 7.74382C228.516 7.87922 228.831 8.03641 229.131 8.21407C229.255 8.26305 229.37 8.32916 229.471 8.41001Z" fill="#263238"/>
<path d="M229.872 39.0785C230.012 39.0027 230.158 38.9371 230.309 38.8825C230.745 38.7055 231.197 38.5613 231.66 38.4514C232.395 38.2565 233.154 38.1407 233.919 38.1066C234.96 38.0563 236.002 38.1977 236.98 38.522C239.213 39.2274 241.262 41.273 242.274 44.0083C242.759 45.4762 242.759 47.0391 242.274 48.507C241.736 50.1002 240.771 51.5507 239.465 52.7315L239.518 52.5199C240.678 55.3806 241.942 58.4842 243.25 61.7211L243.329 61.9171L243.111 61.9876L241.114 62.5833L236.753 63.8921L236.535 63.9548L236.465 63.7589C235.271 60.5142 233.963 57.4889 232.977 54.5184L233.169 54.6517C231.464 54.5244 229.839 53.9493 228.495 52.9979C227.279 52.1563 226.282 51.0864 225.573 49.8629C224.934 48.7779 224.615 47.5634 224.649 46.336C224.689 45.0816 225.038 43.8507 225.669 42.7315C226.301 41.6123 227.2 40.6325 228.303 39.8622C228.757 39.5311 229.266 39.2666 229.811 39.0785C229.319 39.3411 228.841 39.6263 228.381 39.9327C227.17 40.8535 226.242 42.0382 225.687 43.3734C225.209 44.3803 224.986 45.4696 225.033 46.5631C225.08 47.6567 225.395 48.7273 225.957 49.6983C226.654 50.8754 227.627 51.9023 228.809 52.708C230.091 53.6122 231.64 54.1574 233.265 54.2755H233.413L233.457 54.393C234.416 57.3086 235.733 60.3574 236.945 63.6178L236.657 63.4924L241.018 62.1836L243.006 61.5801L242.867 61.8465C241.567 58.6096 240.311 55.4981 239.16 52.6374V52.5199L239.265 52.4258C240.533 51.294 241.478 49.904 242.021 48.3738C242.483 46.9696 242.483 45.4751 242.021 44.071C241.07 41.4376 239.108 39.439 236.98 38.7336C236.038 38.4072 235.033 38.2552 234.024 38.2869C233.27 38.3024 232.521 38.3944 231.791 38.5612C230.492 38.8512 229.881 39.1176 229.872 39.0785Z" fill="#263238"/>
<path d="M202.916 265.38L115.804 265.019C110.773 264.994 105.959 263.176 102.419 259.964C98.8792 256.751 96.9025 252.408 96.9234 247.886L97.8478 51.6263C97.8581 49.3863 98.3594 47.1702 99.3233 45.1045C100.287 43.0388 101.694 41.1641 103.465 39.5875C105.235 38.0109 107.334 36.7634 109.642 35.9162C111.949 35.069 114.419 34.6388 116.912 34.6501L204.015 35.0106C209.046 35.0335 213.861 36.8498 217.403 40.0607C220.944 43.2716 222.923 47.6145 222.905 52.1357L221.98 248.388C221.97 250.629 221.469 252.846 220.505 254.912C219.541 256.979 218.134 258.854 216.364 260.432C214.594 262.01 212.495 263.259 210.188 264.108C207.88 264.957 205.41 265.389 202.916 265.38Z" fill="#455A64"/>
<path d="M203.885 41.7589H187.001C186.45 41.7681 185.907 41.8747 185.402 42.0727C184.897 42.2706 184.44 42.5561 184.058 42.9127C183.675 43.2694 183.375 43.6902 183.174 44.1511C182.973 44.6121 182.874 45.1042 182.885 45.5993V48.3503C182.895 48.845 182.797 49.3367 182.595 49.7972C182.394 50.2577 182.094 50.678 181.711 51.034C181.329 51.39 180.872 51.6747 180.367 51.8719C179.862 52.069 179.319 52.1747 178.769 52.1828L145.856 52.0496C144.743 52.0229 143.687 51.6002 142.92 50.8742C142.153 50.1483 141.738 49.1785 141.766 48.1778V45.4268C141.794 44.4275 141.38 43.4589 140.615 42.7331C139.85 42.0074 138.797 41.5838 137.685 41.5551H131.746L116.964 41.4924C113.448 41.4736 110.067 42.7076 107.561 44.9243C105.056 47.1409 103.629 50.1596 103.595 53.3193L102.723 244.885C102.715 246.452 103.05 248.006 103.71 249.457C104.37 250.908 105.342 252.228 106.57 253.341C107.797 254.455 109.257 255.34 110.865 255.947C112.474 256.553 114.199 256.869 115.944 256.876L202.873 257.237C204.618 257.244 206.348 256.942 207.964 256.348C209.579 255.755 211.049 254.881 212.289 253.777C213.529 252.673 214.514 251.36 215.19 249.914C215.865 248.467 216.217 246.916 216.225 245.347L217.097 53.7817C217.117 50.6131 215.738 47.5667 213.26 45.3122C210.782 43.0577 207.41 41.7796 203.885 41.7589Z" fill="white"/>
<path d="M192.19 231.678L127.551 231.428C126.879 231.428 126.339 230.769 126.348 229.97L126.417 214.773C126.417 213.989 126.967 213.315 127.638 213.315L192.277 213.581C192.649 213.639 192.982 213.824 193.206 214.097C193.431 214.37 193.529 214.71 193.481 215.047L193.42 230.228C193.42 231.036 192.861 231.686 192.19 231.678Z" fill="#F37A20"/>
<path d="M147.594 225.879C147.171 225.879 146.764 225.811 146.374 225.676C145.989 225.535 145.691 225.356 145.48 225.139L145.716 224.676C145.916 224.871 146.184 225.036 146.521 225.172C146.862 225.302 147.22 225.367 147.594 225.367C147.952 225.367 148.242 225.323 148.464 225.237C148.692 225.145 148.857 225.023 148.96 224.871C149.068 224.719 149.123 224.551 149.123 224.367C149.123 224.144 149.057 223.966 148.927 223.83C148.803 223.695 148.637 223.589 148.431 223.513C148.225 223.432 147.998 223.361 147.748 223.301C147.499 223.242 147.25 223.18 147 223.114C146.751 223.044 146.521 222.952 146.309 222.838C146.103 222.724 145.935 222.575 145.805 222.391C145.68 222.201 145.618 221.954 145.618 221.651C145.618 221.369 145.691 221.111 145.837 220.878C145.989 220.64 146.22 220.45 146.529 220.309C146.838 220.163 147.233 220.09 147.716 220.09C148.036 220.09 148.353 220.136 148.667 220.228C148.982 220.315 149.253 220.437 149.48 220.594L149.277 221.074C149.033 220.911 148.773 220.792 148.496 220.716C148.225 220.64 147.962 220.602 147.708 220.602C147.366 220.602 147.084 220.648 146.862 220.74C146.64 220.832 146.474 220.957 146.366 221.114C146.263 221.266 146.212 221.439 146.212 221.635C146.212 221.857 146.274 222.036 146.399 222.171C146.529 222.307 146.697 222.412 146.903 222.488C147.114 222.564 147.344 222.632 147.594 222.692C147.843 222.751 148.09 222.816 148.334 222.887C148.583 222.957 148.811 223.049 149.017 223.163C149.228 223.272 149.396 223.418 149.521 223.602C149.651 223.787 149.716 224.028 149.716 224.326C149.716 224.602 149.64 224.86 149.488 225.099C149.337 225.332 149.104 225.521 148.789 225.668C148.48 225.809 148.082 225.879 147.594 225.879ZM151.027 225.83V220.138H151.629V225.83H151.027ZM153.481 225.83V220.138H153.977L157.904 225.082H157.644V220.138H158.238V225.83H157.742L153.822 220.886H154.083V225.83H153.481ZM162.592 225.879C162.158 225.879 161.757 225.809 161.388 225.668C161.025 225.521 160.708 225.318 160.437 225.058C160.171 224.798 159.963 224.491 159.811 224.139C159.664 223.787 159.591 223.402 159.591 222.984C159.591 222.567 159.664 222.182 159.811 221.83C159.963 221.477 160.174 221.171 160.445 220.911C160.716 220.651 161.033 220.45 161.396 220.309C161.765 220.163 162.166 220.09 162.6 220.09C163.034 220.09 163.429 220.157 163.787 220.293C164.15 220.428 164.459 220.634 164.714 220.911L164.34 221.293C164.101 221.055 163.839 220.884 163.551 220.781C163.264 220.678 162.955 220.626 162.624 220.626C162.272 220.626 161.947 220.686 161.649 220.805C161.356 220.919 161.098 221.084 160.876 221.301C160.659 221.513 160.488 221.762 160.364 222.049C160.245 222.331 160.185 222.643 160.185 222.984C160.185 223.32 160.245 223.632 160.364 223.919C160.488 224.207 160.659 224.459 160.876 224.676C161.098 224.887 161.356 225.052 161.649 225.172C161.947 225.286 162.269 225.342 162.616 225.342C162.941 225.342 163.248 225.294 163.535 225.196C163.828 225.099 164.096 224.933 164.34 224.7L164.681 225.155C164.41 225.394 164.093 225.576 163.73 225.7C163.367 225.819 162.987 225.879 162.592 225.879ZM164.104 225.082V222.984H164.681V225.155L164.104 225.082ZM170.806 225.879C170.079 225.879 169.507 225.67 169.09 225.253C168.673 224.836 168.464 224.218 168.464 223.399V220.138H169.066V223.375C169.066 224.047 169.217 224.543 169.521 224.863C169.824 225.183 170.253 225.342 170.806 225.342C171.364 225.342 171.795 225.183 172.098 224.863C172.402 224.543 172.554 224.047 172.554 223.375V220.138H173.139V223.399C173.139 224.218 172.931 224.836 172.513 225.253C172.101 225.67 171.532 225.879 170.806 225.879ZM174.953 225.83V220.138H177.083C177.565 220.138 177.98 220.217 178.327 220.374C178.674 220.526 178.94 220.748 179.124 221.041C179.314 221.328 179.408 221.678 179.408 222.09C179.408 222.491 179.314 222.838 179.124 223.131C178.94 223.418 178.674 223.64 178.327 223.798C177.98 223.955 177.565 224.033 177.083 224.033H175.286L175.554 223.749V225.83H174.953ZM175.554 223.798L175.286 223.505H177.067C177.636 223.505 178.067 223.383 178.36 223.139C178.658 222.89 178.807 222.54 178.807 222.09C178.807 221.635 178.658 221.282 178.36 221.033C178.067 220.784 177.636 220.659 177.067 220.659H175.286L175.554 220.374V223.798Z" fill="#E8E8E3"/>
<path d="M140.444 98.0718L118.014 97.9803L117.996 101.68L140.425 101.771L140.444 98.0718Z" fill="#F37A20"/>
<path opacity="0.1" d="M140.444 98.0718L118.014 97.9803L117.996 101.68L140.425 101.771L140.444 98.0718Z" fill="black"/>
<path d="M206.196 120.785C206.372 120.769 206.545 120.732 206.71 120.675C206.951 120.59 207.161 120.446 207.316 120.259C207.47 120.072 207.562 119.849 207.582 119.617C207.582 118.371 207.582 116.553 207.582 114.217C207.582 113.049 207.582 111.74 207.582 110.298C207.582 109.946 207.582 109.577 207.582 109.209C207.639 108.851 207.552 108.487 207.338 108.182C207.218 108.036 207.062 107.916 206.882 107.833C206.702 107.75 206.503 107.706 206.3 107.704H204.94H192.338L119.397 107.461C119.21 107.458 119.026 107.496 118.859 107.571C118.692 107.646 118.547 107.756 118.438 107.892C118.227 108.199 118.147 108.563 118.211 108.919C118.211 109.703 118.211 110.486 118.211 111.27C118.211 112.838 118.211 114.405 118.211 115.973C118.211 116.756 118.211 117.54 118.211 118.324C118.175 118.689 118.175 119.056 118.211 119.421C118.257 119.578 118.342 119.723 118.46 119.845C118.578 119.967 118.725 120.063 118.891 120.126C119.063 120.188 119.247 120.217 119.432 120.213H123.871L143.24 120.307L176.03 120.487L198.138 120.644L204.146 120.706H205.707C206.065 120.706 206.239 120.706 206.239 120.706H205.707H204.146H198.138H176.03L143.24 120.612L123.871 120.542H119.432C119.188 120.551 118.944 120.513 118.717 120.432C118.487 120.344 118.283 120.21 118.12 120.04C117.957 119.87 117.839 119.669 117.775 119.452C117.725 119.247 117.707 119.036 117.723 118.825V118.245C117.723 117.462 117.723 116.678 117.723 115.894C117.723 114.327 117.723 112.759 117.723 111.192C117.723 110.408 117.723 109.624 117.723 108.84C117.706 108.632 117.706 108.422 117.723 108.213C117.755 107.983 117.855 107.764 118.01 107.579C118.161 107.389 118.36 107.236 118.591 107.131C118.822 107.026 119.077 106.972 119.336 106.975L192.277 107.336L204.879 107.414H206.239C206.479 107.414 206.715 107.466 206.928 107.566C207.14 107.665 207.323 107.81 207.46 107.986C207.706 108.327 207.805 108.736 207.739 109.138C207.739 109.507 207.739 109.875 207.739 110.228C207.739 111.654 207.739 112.963 207.739 114.146C207.739 116.498 207.678 118.3 207.661 119.554C207.639 119.795 207.542 120.026 207.38 120.219C207.217 120.412 206.997 120.559 206.745 120.644C206.58 120.736 206.39 120.785 206.196 120.785Z" fill="#E0E0E0"/>
<path d="M165.774 111.396H124.752V114.852H165.774V111.396Z" fill="#F37A20"/>
<path opacity="0.2" d="M165.774 111.396H124.752V114.852H165.774V111.396Z" fill="white"/>
<path d="M140.291 131.819L117.861 131.728L117.843 135.427L140.272 135.519L140.291 131.819Z" fill="#F37A20"/>
<path opacity="0.1" d="M140.291 131.819L117.861 131.728L117.843 135.427L140.272 135.519L140.291 131.819Z" fill="black"/>
<path d="M205.629 154.533C205.805 154.514 205.979 154.485 206.152 154.447C206.395 154.377 206.62 154.262 206.809 154.108C206.999 153.953 207.149 153.765 207.251 153.554C207.388 153.237 207.442 152.897 207.408 152.558C207.408 152.182 207.408 151.775 207.408 151.32C207.408 150.411 207.408 149.376 207.408 148.185V143.208C207.449 142.848 207.361 142.485 207.155 142.174C206.94 141.854 206.601 141.617 206.204 141.507C205.77 141.438 205.327 141.417 204.887 141.445H192.338L119.65 141.202C119.259 141.203 118.882 141.331 118.588 141.563C118.294 141.795 118.105 142.115 118.054 142.464C118.054 143.208 118.054 144.031 118.054 144.815C118.054 146.382 118.054 147.95 118.054 149.517C118.054 150.301 118.054 151.085 118.054 151.869C118.021 152.235 118.039 152.603 118.106 152.966C118.215 153.284 118.439 153.56 118.743 153.75C119.065 153.933 119.443 154.021 119.824 154H121.036H123.557L142.856 154.087L175.533 154.267L197.562 154.424L203.553 154.486H205.114H205.637H205.114H203.553H197.562H175.533L142.839 154.455L123.539 154.392H119.746C119.274 154.417 118.806 154.305 118.411 154.071C118.015 153.824 117.725 153.461 117.592 153.044C117.514 152.646 117.49 152.241 117.522 151.837C117.522 151.053 117.522 150.27 117.522 149.486C117.522 147.918 117.522 146.351 117.522 144.783C117.522 144 117.522 143.216 117.522 142.432C117.586 141.984 117.829 141.572 118.206 141.273C118.583 140.975 119.069 140.81 119.571 140.81L192.26 141.17L204.809 141.257C205.276 141.231 205.745 141.26 206.204 141.343C206.657 141.476 207.039 141.755 207.277 142.127C207.502 142.472 207.6 142.872 207.556 143.271C207.556 143.639 207.556 144 207.556 144.36C207.556 145.779 207.556 147.08 207.556 148.279C207.556 149.478 207.556 150.489 207.556 151.414C207.556 151.861 207.556 152.276 207.556 152.66C207.588 153.011 207.525 153.363 207.373 153.687C207.26 153.903 207.096 154.095 206.893 154.249C206.689 154.403 206.452 154.516 206.195 154.58C206.005 154.595 205.813 154.579 205.629 154.533Z" fill="#E0E0E0"/>
<path d="M140.122 167.033L117.692 166.941L117.674 170.64L140.103 170.732L140.122 167.033Z" fill="#F37A20"/>
<path opacity="0.1" d="M140.122 167.033L117.692 166.941L117.674 170.64L140.103 170.732L140.122 167.033Z" fill="black"/>
<path d="M205.454 189.732C205.63 189.713 205.805 189.684 205.977 189.646C206.22 189.576 206.443 189.462 206.633 189.309C206.822 189.156 206.973 188.969 207.076 188.76C207.213 188.444 207.267 188.103 207.233 187.765C207.233 187.381 207.233 186.981 207.233 186.519C207.233 185.617 207.233 184.575 207.233 183.384V178.407C207.275 178.046 207.186 177.684 206.98 177.372C206.76 177.059 206.423 176.825 206.03 176.714C205.596 176.641 205.153 176.618 204.713 176.643H192.164L119.475 176.4C119.084 176.401 118.707 176.529 118.414 176.762C118.12 176.994 117.93 177.314 117.879 177.662C117.879 178.446 117.879 179.23 117.879 180.013C117.879 181.581 117.879 183.148 117.879 184.716C117.879 185.5 117.879 186.283 117.879 187.067C117.847 187.431 117.865 187.797 117.932 188.157C118.036 188.476 118.261 188.754 118.568 188.94C118.889 189.128 119.269 189.216 119.65 189.191H123.443L142.743 189.285L175.42 189.465L197.448 189.622L203.44 189.685H205.001C205.349 189.685 205.524 189.685 205.524 189.685C205.524 189.685 205.349 189.685 205.001 189.685H203.44H197.448H175.42L142.743 189.599L123.443 189.528H119.65C119.178 189.557 118.708 189.444 118.316 189.207C117.919 188.96 117.629 188.597 117.496 188.18C117.418 187.782 117.394 187.376 117.426 186.973C117.426 186.189 117.426 185.406 117.426 184.622C117.426 183.054 117.426 181.487 117.426 179.919C117.426 179.136 117.426 178.352 117.426 177.529C117.488 177.081 117.729 176.67 118.105 176.371C118.481 176.072 118.965 175.907 119.467 175.906L192.155 176.267L204.704 176.353C205.171 176.327 205.641 176.356 206.099 176.439C206.553 176.572 206.935 176.852 207.172 177.223C207.398 177.568 207.495 177.969 207.451 178.367C207.451 178.736 207.451 179.104 207.451 179.457C207.451 180.876 207.451 182.177 207.451 183.376C207.451 184.575 207.451 185.586 207.451 186.511C207.451 186.957 207.451 187.373 207.451 187.757C207.485 188.107 207.422 188.46 207.268 188.784C207.155 189 206.991 189.192 206.788 189.346C206.585 189.5 206.347 189.613 206.091 189.677C205.886 189.74 205.668 189.759 205.454 189.732Z" fill="#E0E0E0"/>
<path d="M164.899 146.121L123.876 145.954L123.859 149.41L164.881 149.578L164.899 146.121Z" fill="#F37A20"/>
<path opacity="0.2" d="M164.899 146.121L123.876 145.954L123.859 149.41L164.881 149.578L164.899 146.121Z" fill="white"/>
<path d="M127.586 183.336C127.56 183.652 127.432 183.953 127.217 184.204C127.003 184.454 126.711 184.642 126.378 184.745C126.046 184.848 125.687 184.861 125.346 184.782C125.006 184.703 124.698 184.536 124.462 184.302C124.226 184.067 124.072 183.776 124.019 183.463C123.965 183.151 124.015 182.831 124.162 182.544C124.309 182.257 124.546 182.015 124.845 181.848C125.144 181.681 125.49 181.596 125.842 181.604C126.328 181.629 126.783 181.824 127.11 182.148C127.436 182.473 127.607 182.9 127.586 183.336Z" fill="#F37A20"/>
<path d="M133.141 183.36C133.158 183.581 133.125 183.803 133.042 184.012C132.96 184.22 132.831 184.412 132.663 184.574C132.495 184.736 132.291 184.865 132.065 184.953C131.839 185.041 131.595 185.087 131.349 185.087C131.102 185.087 130.859 185.041 130.633 184.953C130.407 184.865 130.203 184.736 130.035 184.574C129.867 184.412 129.738 184.22 129.655 184.012C129.573 183.803 129.54 183.581 129.557 183.36C129.54 183.139 129.573 182.917 129.655 182.709C129.738 182.5 129.867 182.308 130.035 182.146C130.203 181.984 130.407 181.855 130.633 181.767C130.859 181.679 131.102 181.633 131.349 181.633C131.595 181.633 131.839 181.679 132.065 181.767C132.291 181.855 132.495 181.984 132.663 182.146C132.831 182.308 132.96 182.5 133.042 182.709C133.125 182.917 133.158 183.139 133.141 183.36Z" fill="#F37A20"/>
<path d="M138.705 183.384C138.679 183.699 138.551 184 138.337 184.251C138.122 184.501 137.83 184.689 137.498 184.792C137.165 184.895 136.806 184.908 136.465 184.829C136.125 184.75 135.817 184.583 135.581 184.349C135.345 184.114 135.191 183.823 135.138 183.51C135.084 183.198 135.134 182.878 135.281 182.591C135.428 182.304 135.666 182.062 135.964 181.895C136.263 181.728 136.609 181.643 136.961 181.651C137.446 181.678 137.9 181.874 138.226 182.198C138.552 182.521 138.724 182.947 138.705 183.384Z" fill="#F37A20"/>
<path d="M144.26 183.407C144.234 183.722 144.106 184.024 143.892 184.274C143.677 184.525 143.385 184.713 143.053 184.816C142.72 184.918 142.361 184.931 142.02 184.852C141.68 184.774 141.372 184.607 141.136 184.372C140.9 184.138 140.746 183.846 140.693 183.534C140.639 183.221 140.689 182.902 140.836 182.615C140.983 182.327 141.221 182.085 141.519 181.918C141.818 181.751 142.164 181.667 142.516 181.675C143.001 181.701 143.455 181.897 143.781 182.221C144.107 182.545 144.279 182.971 144.26 183.407Z" fill="#F37A20"/>
<path d="M149.815 183.423C149.791 183.738 149.665 184.041 149.451 184.292C149.237 184.544 148.946 184.733 148.613 184.837C148.281 184.941 147.921 184.955 147.58 184.877C147.239 184.799 146.931 184.633 146.694 184.398C146.457 184.164 146.302 183.873 146.248 183.56C146.194 183.247 146.243 182.927 146.39 182.64C146.537 182.352 146.774 182.109 147.073 181.942C147.372 181.775 147.719 181.69 148.071 181.698C148.555 181.725 149.008 181.92 149.333 182.242C149.659 182.564 149.832 182.988 149.815 183.423Z" fill="#F37A20"/>
<path d="M155.379 183.446C155.355 183.76 155.23 184.061 155.018 184.312C154.806 184.563 154.518 184.753 154.188 184.858C153.858 184.963 153.5 184.979 153.16 184.905C152.82 184.83 152.511 184.667 152.272 184.437C152.034 184.207 151.875 183.919 151.816 183.608C151.757 183.298 151.8 182.979 151.94 182.69C152.08 182.402 152.311 182.156 152.605 181.984C152.898 181.812 153.241 181.721 153.591 181.722C154.083 181.738 154.547 181.929 154.882 182.252C155.217 182.575 155.396 183.005 155.379 183.446Z" fill="#F37A20"/>
<path d="M160.934 183.47C160.952 183.691 160.918 183.912 160.836 184.121C160.753 184.33 160.624 184.521 160.456 184.683C160.288 184.845 160.085 184.974 159.859 185.063C159.633 185.151 159.389 185.197 159.142 185.197C158.896 185.197 158.652 185.151 158.426 185.063C158.2 184.974 157.997 184.845 157.829 184.683C157.66 184.521 157.531 184.33 157.449 184.121C157.367 183.912 157.333 183.691 157.35 183.47C157.333 183.249 157.367 183.027 157.449 182.818C157.531 182.609 157.66 182.418 157.829 182.256C157.997 182.094 158.2 181.965 158.426 181.877C158.652 181.788 158.896 181.743 159.142 181.743C159.389 181.743 159.633 181.788 159.859 181.877C160.085 181.965 160.288 182.094 160.456 182.256C160.624 182.418 160.753 182.609 160.836 182.818C160.918 183.027 160.952 183.249 160.934 183.47Z" fill="#F37A20"/>
<path d="M166.49 183.493C166.466 183.807 166.34 184.108 166.129 184.359C165.917 184.61 165.628 184.8 165.298 184.905C164.968 185.01 164.611 185.026 164.271 184.952C163.93 184.877 163.622 184.714 163.383 184.484C163.144 184.254 162.985 183.966 162.926 183.655C162.867 183.345 162.911 183.026 163.051 182.737C163.191 182.449 163.422 182.203 163.715 182.031C164.009 181.859 164.352 181.768 164.702 181.769C165.193 181.785 165.657 181.976 165.992 182.299C166.327 182.622 166.506 183.052 166.49 183.493Z" fill="#F37A20"/>
<path d="M172.045 183.517C172.021 183.832 171.894 184.135 171.68 184.386C171.466 184.638 171.175 184.827 170.843 184.931C170.51 185.035 170.151 185.049 169.809 184.971C169.468 184.893 169.16 184.726 168.923 184.492C168.686 184.258 168.531 183.967 168.477 183.654C168.423 183.341 168.473 183.021 168.619 182.733C168.766 182.446 169.004 182.203 169.303 182.036C169.602 181.869 169.949 181.784 170.301 181.792C170.784 181.819 171.237 182.014 171.563 182.336C171.889 182.658 172.062 183.082 172.045 183.517Z" fill="#F37A20"/>
<g opacity="0.2">
<path opacity="0.2" d="M127.586 183.336C127.56 183.652 127.432 183.953 127.217 184.204C127.003 184.454 126.711 184.642 126.378 184.745C126.046 184.848 125.687 184.861 125.346 184.782C125.006 184.703 124.698 184.536 124.462 184.302C124.226 184.067 124.072 183.776 124.019 183.463C123.965 183.151 124.015 182.831 124.162 182.544C124.309 182.257 124.546 182.015 124.845 181.848C125.144 181.681 125.49 181.596 125.842 181.604C126.328 181.629 126.783 181.824 127.11 182.148C127.436 182.473 127.607 182.9 127.586 183.336Z" fill="white"/>
<path opacity="0.2" d="M133.141 183.36C133.158 183.581 133.125 183.803 133.042 184.011C132.96 184.22 132.831 184.412 132.663 184.573C132.495 184.735 132.291 184.865 132.065 184.953C131.839 185.041 131.595 185.087 131.349 185.087C131.102 185.087 130.859 185.041 130.633 184.953C130.407 184.865 130.203 184.735 130.035 184.573C129.867 184.412 129.738 184.22 129.655 184.011C129.573 183.803 129.54 183.581 129.557 183.36C129.54 183.139 129.573 182.917 129.655 182.708C129.738 182.5 129.867 182.308 130.035 182.146C130.203 181.984 130.407 181.855 130.633 181.767C130.859 181.679 131.102 181.633 131.349 181.633C131.595 181.633 131.839 181.679 132.065 181.767C132.291 181.855 132.495 181.984 132.663 182.146C132.831 182.308 132.96 182.5 133.042 182.708C133.125 182.917 133.158 183.139 133.141 183.36Z" fill="white"/>
<path opacity="0.2" d="M138.705 183.383C138.679 183.699 138.551 184 138.337 184.251C138.122 184.501 137.83 184.689 137.498 184.792C137.165 184.895 136.806 184.908 136.465 184.829C136.125 184.75 135.817 184.583 135.581 184.349C135.345 184.114 135.191 183.823 135.138 183.51C135.084 183.198 135.134 182.878 135.281 182.591C135.428 182.304 135.666 182.062 135.964 181.895C136.263 181.728 136.609 181.643 136.961 181.651C137.446 181.678 137.9 181.874 138.226 182.198C138.552 182.521 138.724 182.947 138.705 183.383Z" fill="white"/>
<path opacity="0.2" d="M144.26 183.407C144.234 183.722 144.106 184.024 143.892 184.274C143.677 184.525 143.385 184.713 143.053 184.816C142.72 184.918 142.361 184.931 142.02 184.852C141.68 184.774 141.372 184.607 141.136 184.372C140.9 184.138 140.746 183.846 140.693 183.534C140.639 183.221 140.689 182.902 140.836 182.615C140.983 182.327 141.221 182.085 141.519 181.918C141.818 181.751 142.164 181.667 142.516 181.675C143.001 181.701 143.455 181.897 143.781 182.221C144.107 182.545 144.279 182.971 144.26 183.407Z" fill="white"/>
<path opacity="0.2" d="M149.815 183.422C149.791 183.738 149.664 184.041 149.451 184.292C149.237 184.544 148.946 184.733 148.613 184.837C148.28 184.941 147.921 184.955 147.58 184.877C147.239 184.799 146.931 184.632 146.694 184.398C146.457 184.164 146.302 183.872 146.248 183.56C146.194 183.247 146.243 182.927 146.39 182.639C146.537 182.352 146.774 182.109 147.073 181.942C147.372 181.774 147.719 181.69 148.071 181.698C148.555 181.725 149.007 181.92 149.333 182.242C149.659 182.564 149.832 182.987 149.815 183.422Z" fill="white"/>
<path opacity="0.2" d="M155.379 183.446C155.355 183.76 155.23 184.061 155.018 184.312C154.806 184.563 154.518 184.752 154.188 184.858C153.858 184.963 153.5 184.979 153.16 184.905C152.82 184.83 152.511 184.667 152.272 184.437C152.034 184.207 151.875 183.919 151.816 183.608C151.757 183.298 151.8 182.979 151.94 182.69C152.08 182.402 152.311 182.156 152.605 181.984C152.898 181.812 153.241 181.721 153.591 181.722C154.083 181.738 154.547 181.929 154.882 182.252C155.217 182.575 155.396 183.004 155.379 183.446Z" fill="white"/>
<path opacity="0.2" d="M160.934 183.47C160.952 183.691 160.918 183.912 160.836 184.121C160.753 184.33 160.624 184.521 160.456 184.683C160.288 184.845 160.085 184.974 159.859 185.063C159.633 185.151 159.389 185.197 159.142 185.197C158.896 185.197 158.652 185.151 158.426 185.063C158.2 184.974 157.997 184.845 157.829 184.683C157.66 184.521 157.531 184.33 157.449 184.121C157.367 183.912 157.333 183.691 157.35 183.47C157.333 183.249 157.367 183.027 157.449 182.818C157.531 182.609 157.66 182.418 157.829 182.256C157.997 182.094 158.2 181.965 158.426 181.877C158.652 181.788 158.896 181.743 159.142 181.743C159.389 181.743 159.633 181.788 159.859 181.877C160.085 181.965 160.288 182.094 160.456 182.256C160.624 182.418 160.753 182.609 160.836 182.818C160.918 183.027 160.952 183.249 160.934 183.47Z" fill="white"/>
<path opacity="0.2" d="M166.49 183.493C166.466 183.807 166.34 184.108 166.129 184.359C165.917 184.61 165.628 184.8 165.298 184.905C164.968 185.01 164.611 185.026 164.271 184.952C163.93 184.877 163.622 184.714 163.383 184.484C163.144 184.254 162.985 183.966 162.926 183.655C162.867 183.345 162.911 183.026 163.051 182.737C163.191 182.449 163.422 182.203 163.715 182.031C164.009 181.859 164.352 181.768 164.702 181.769C165.193 181.785 165.657 181.976 165.992 182.299C166.327 182.622 166.506 183.052 166.49 183.493Z" fill="white"/>
<path opacity="0.2" d="M172.045 183.517C172.021 183.832 171.894 184.135 171.68 184.386C171.466 184.638 171.175 184.827 170.843 184.931C170.51 185.035 170.151 185.049 169.809 184.971C169.468 184.893 169.16 184.726 168.923 184.492C168.686 184.258 168.531 183.967 168.477 183.654C168.423 183.341 168.473 183.021 168.619 182.733C168.766 182.446 169.004 182.203 169.303 182.036C169.602 181.869 169.949 181.784 170.301 181.792C170.784 181.819 171.237 182.014 171.563 182.336C171.889 182.658 172.062 183.082 172.045 183.517Z" fill="white"/>
</g>
<path d="M164.152 70.3739C164.758 70.1341 165.272 69.7396 165.63 69.2393C165.989 68.739 166.175 68.1551 166.167 67.5602C166.189 67.1735 166.124 66.7867 165.975 66.4234C165.826 66.0601 165.596 65.7279 165.3 65.447C165.003 65.1661 164.646 64.9424 164.25 64.7896C163.854 64.6367 163.428 64.5579 162.997 64.5579C162.566 64.5579 162.14 64.6367 161.744 64.7896C161.348 64.9424 160.991 65.1661 160.694 65.447C160.398 65.7279 160.168 66.0601 160.019 66.4234C159.87 66.7867 159.804 67.1735 159.827 67.5602C159.814 68.161 159.999 68.7519 160.359 69.2583C160.719 69.7646 161.238 70.1637 161.85 70.4052C156.966 71.0636 157.184 75.8288 157.184 75.8288L168.731 75.8758C168.731 75.8758 169.001 71.0244 164.152 70.3739Z" fill="#F37A20"/>
<path opacity="0.1" d="M164.152 70.3739C164.758 70.1341 165.272 69.7396 165.63 69.2393C165.989 68.739 166.175 68.1551 166.167 67.5602C166.189 67.1735 166.124 66.7867 165.975 66.4234C165.826 66.0601 165.596 65.7279 165.3 65.447C165.003 65.1661 164.646 64.9424 164.25 64.7896C163.854 64.6367 163.428 64.5579 162.997 64.5579C162.566 64.5579 162.14 64.6367 161.744 64.7896C161.348 64.9424 160.991 65.1661 160.694 65.447C160.398 65.7279 160.168 66.0601 160.019 66.4234C159.87 66.7867 159.804 67.1735 159.827 67.5602C159.814 68.161 159.999 68.7519 160.359 69.2583C160.719 69.7646 161.238 70.1637 161.85 70.4052C156.966 71.0636 157.184 75.8288 157.184 75.8288L168.731 75.8758C168.731 75.8758 169.001 71.0244 164.152 70.3739Z" fill="black"/>
<path d="M182.915 78.9492L141.762 78.7814L141.739 83.2017L182.893 83.3695L182.915 78.9492Z" fill="#F37A20"/>
<path opacity="0.2" d="M182.915 78.9492L141.762 78.7814L141.739 83.2017L182.893 83.3695L182.915 78.9492Z" fill="white"/>
<path d="M31.6218 101.857H31.212L30.0259 101.936C29.3841 101.97 28.7458 102.046 28.1161 102.163C27.7082 102.214 27.3035 102.285 26.9039 102.375L25.5521 102.712C23.2514 103.346 21.0807 104.312 19.1249 105.572C16.5408 107.258 14.383 109.416 12.7935 111.905C11.8593 113.34 11.1158 114.868 10.5784 116.459C10.0138 118.187 9.68864 119.972 9.61044 121.772C9.55846 122.718 9.57594 123.666 9.66276 124.61C9.66276 125.088 9.81102 125.566 9.88078 126.052C9.93946 126.542 10.0415 127.026 10.186 127.502C10.9702 130.647 12.5614 133.584 14.8326 136.078C17.1038 138.572 19.9921 140.555 23.2673 141.868C25.6377 142.787 28.1784 143.3 30.7585 143.381C33.4233 143.512 36.0908 143.169 38.6072 142.37L39.3747 142.111H39.4793L39.5665 142.158L50.5635 147.174L50.2408 147.425C49.0635 144.149 47.9298 140.974 46.831 137.926V137.808L46.9269 137.722C49.5946 135.307 51.575 132.35 52.7001 129.101C53.7191 126.13 54.0165 122.998 53.5722 119.915C53.1769 117.175 52.1968 114.53 50.6856 112.124C49.3829 110.058 47.7025 108.203 45.7147 106.638C44.0747 105.399 42.2596 104.361 40.3165 103.55C38.8463 102.98 37.3151 102.547 35.7468 102.257L34.0026 101.998L32.7381 101.912L31.9707 101.865H31.709C31.796 101.856 31.8837 101.856 31.9707 101.865H32.7468L34.0113 101.912L35.7555 102.139C37.3433 102.408 38.8954 102.826 40.3863 103.386C42.3627 104.187 44.2106 105.223 45.8804 106.466C47.9047 108.024 49.6208 109.879 50.9559 111.952C52.51 114.383 53.5202 117.065 53.9297 119.844C54.411 122.975 54.1343 126.161 53.1187 129.187C51.9862 132.503 49.9752 135.524 47.2583 137.988L47.3106 137.785C48.4095 140.833 49.5519 144.008 50.7379 147.276L50.9036 147.754L50.4065 147.527L39.4095 142.518H39.6014L38.8165 142.777C36.2517 143.588 33.5348 143.94 30.8195 143.812C28.1838 143.721 25.59 143.19 23.1713 142.244C18.5578 140.468 14.7193 137.382 12.2441 133.458C11.1051 131.646 10.2733 129.691 9.77613 127.658C9.63999 127.171 9.53804 126.676 9.4709 126.177C9.40114 125.683 9.28777 125.197 9.2616 124.712C9.02558 121.923 9.35355 119.119 10.2296 116.435C10.7804 114.823 11.5446 113.275 12.5058 111.827C14.1332 109.315 16.3359 107.143 18.9679 105.455C20.9559 104.191 23.1631 103.233 25.4998 102.617L26.869 102.304C27.272 102.22 27.6795 102.155 28.0899 102.108C28.7262 102.002 29.3704 101.939 30.0172 101.92L31.212 101.881C31.3478 101.864 31.4848 101.856 31.6218 101.857Z" fill="#F37A20"/>
<path d="M36.5927 120.134H34.9793L31.491 115.73V112.838C31.491 112.838 28.9968 112.697 29.2934 116.482C29.5899 120.268 29.2934 119.304 29.2934 119.304C29.2934 119.304 23.9998 119.304 23.5638 119.735C23.1277 120.166 23.1016 124.759 23.0405 127.322C23.0071 127.939 23.2043 128.549 23.6009 129.055C23.9975 129.561 24.5707 129.932 25.2294 130.112C25.4141 130.158 25.6047 130.181 25.7963 130.182C27.1219 130.182 33.8631 129.218 33.8631 129.218H36.645L36.5927 120.134Z" fill="#F37A20"/>
<path d="M41.2061 119.359L40.212 129.265H37.4562V119.562L41.2061 119.359Z" fill="#F37A20"/>
<path d="M74.0747 321.042V314.341L60.7057 314.255L60.5923 324.389L61.4208 324.444C65.1097 324.655 80.188 324.969 82.6647 324.279C85.4205 323.511 74.0747 321.042 74.0747 321.042Z" fill="#F37A20"/>
<path d="M82.9788 323.652C82.9788 323.762 77.973 323.856 71.8074 323.856C65.6417 323.856 60.636 323.762 60.636 323.652C60.636 323.542 65.6417 323.448 71.8074 323.448C77.973 323.448 82.9788 323.542 82.9788 323.652Z" fill="#263238"/>
<path d="M74.3103 322.414C74.1969 322.359 74.3103 322.006 74.5806 321.63C74.851 321.254 75.2172 321.097 75.3044 321.176C75.3917 321.254 75.2085 321.552 74.9469 321.873C74.6853 322.194 74.4236 322.469 74.3103 322.414Z" fill="#263238"/>
<path d="M75.1649 322.853C75.0428 322.853 75.1039 322.414 75.3655 321.998C75.6271 321.583 75.976 321.332 76.0719 321.395C76.1678 321.458 76.0108 321.81 75.7666 322.179C75.5225 322.547 75.2783 322.892 75.1649 322.853Z" fill="#263238"/>
<path d="M64.6649 323.621C64.6126 323.621 64.412 323.48 64.1242 323.182C63.7729 322.799 63.3816 322.447 62.9556 322.132C62.5368 321.831 62.0377 321.634 61.508 321.56C61.0981 321.513 60.8365 321.56 60.8103 321.513C60.7842 321.466 61.0371 321.301 61.5167 321.27C62.1497 321.258 62.7672 321.446 63.2609 321.803C63.7234 322.141 64.1135 322.553 64.412 323.017C64.6126 323.362 64.7173 323.589 64.6649 323.621Z" fill="#263238"/>
<path d="M74.3539 321.152C74.4149 321.246 74.1882 321.481 73.8044 321.606C73.4207 321.732 73.0806 321.685 73.0632 321.606C73.0457 321.528 73.3161 321.363 73.6475 321.254C73.9789 321.144 74.2841 321.058 74.3539 321.152Z" fill="#263238"/>
<path d="M74.1446 320.501C74.1446 320.619 73.7958 320.713 73.3423 320.721C72.8888 320.729 72.5312 320.635 72.54 320.525C72.5487 320.415 72.9062 320.313 73.3423 320.305C73.7783 320.298 74.1271 320.392 74.1446 320.501Z" fill="#263238"/>
<path d="M106.996 321.042V314.341L93.6269 314.255L93.5135 324.287L94.342 324.342C98.0309 324.553 113.118 324.969 115.586 324.279C118.342 323.511 106.996 321.042 106.996 321.042Z" fill="#F37A20"/>
<path d="M115.9 323.668C115.9 323.777 110.903 323.871 104.729 323.871C98.5542 323.871 93.5659 323.777 93.5659 323.668C93.5659 323.558 98.563 323.464 104.729 323.464C110.894 323.464 115.9 323.558 115.9 323.668Z" fill="#263238"/>
<path d="M107.231 322.414C107.127 322.359 107.231 322.006 107.502 321.63C107.772 321.254 108.138 321.097 108.226 321.176C108.313 321.254 108.13 321.552 107.868 321.873C107.606 322.194 107.345 322.469 107.231 322.414Z" fill="#263238"/>
<path d="M108.086 322.853C107.973 322.853 108.025 322.414 108.295 321.998C108.566 321.583 108.906 321.332 109.002 321.395C109.098 321.458 108.932 321.81 108.688 322.179C108.444 322.547 108.208 322.892 108.086 322.853Z" fill="#263238"/>
<path d="M97.5862 323.621C97.5339 323.621 97.342 323.48 97.0455 323.182C96.6942 322.799 96.3029 322.447 95.8769 322.132C95.458 321.831 94.959 321.634 94.4293 321.56C94.0281 321.513 93.7577 321.56 93.7316 321.513C93.7054 321.466 93.9583 321.301 94.438 321.27C95.071 321.258 95.6885 321.446 96.1821 321.803C96.6471 322.139 97.0375 322.551 97.3333 323.017C97.5339 323.362 97.6385 323.589 97.5862 323.621Z" fill="#263238"/>
<path d="M107.275 321.152C107.336 321.246 107.109 321.481 106.726 321.606C106.342 321.732 106.002 321.685 105.984 321.606C105.967 321.528 106.237 321.363 106.569 321.254C106.9 321.144 107.205 321.058 107.275 321.152Z" fill="#263238"/>
<path d="M107.083 320.501C107.083 320.619 106.734 320.713 106.281 320.721C105.827 320.729 105.479 320.635 105.487 320.525C105.496 320.415 105.845 320.313 106.281 320.305C106.717 320.298 107.083 320.392 107.083 320.501Z" fill="#263238"/>
<path d="M156.251 122.047C155.902 121.725 155.039 121.882 155.039 121.882C155.126 121.431 155.126 120.97 155.039 120.518C154.882 120.079 153.783 120.166 153.783 120.166C153.732 119.796 153.732 119.422 153.783 119.053C153.792 118.971 153.772 118.888 153.727 118.817C153.682 118.745 153.613 118.688 153.53 118.653C153.01 118.463 152.452 118.372 151.891 118.387C151.219 117.956 153.94 114.53 154.952 113.433C155.963 112.336 155.78 111.482 154.882 111.482C154.263 111.482 151.088 114.773 150.112 115.879C149.135 116.984 146.545 120.056 146.458 117.603C146.37 115.15 145.272 113.3 144.583 112.986C143.894 112.673 143.161 113.41 143.536 114.092C143.866 114.866 144.071 115.679 144.147 116.506C144.241 117.164 144.209 117.832 144.051 118.481C143.762 119.687 143.368 120.872 142.873 122.023H142.804C142.804 122.023 123.775 138.427 122.397 139.595C121.167 140.645 96.4349 138.349 91.4727 137.879C89.7866 137.657 88.0839 137.552 86.3798 137.565C84.2257 137.651 83.842 137.926 81.6967 137.949C76.2788 138.003 70.8735 138.43 65.5283 139.227C63.1079 139.596 60.8471 140.557 58.9924 142.002C57.1377 143.448 55.7605 145.324 55.0109 147.425C50.0139 161.454 38.6942 194.662 36.6972 213.315C35.1881 215.774 33.8257 218.304 32.6158 220.894C31.2117 224.327 31.5519 224.444 32.0228 224.523C33.296 224.734 34.7437 218.574 35.2844 220.063C35.8251 221.552 32.5373 227.407 33.8716 227.579C35.6158 227.799 37.0024 221.309 37.1681 220.792C37.3338 220.275 38.1971 220.439 38.0402 220.925C37.7873 221.615 35.3367 228.927 37.046 229.162C37.9878 229.288 38.0925 227.744 38.0925 227.744C38.0925 227.744 39.8367 220.745 40.6303 220.886C41.4239 221.027 40.5779 225.158 40.1768 226.537C39.7756 227.916 40.3337 228.614 41.1535 228.277C41.7116 228.042 43.0459 223.849 43.4122 222.485C43.7785 221.121 44.6942 217.343 45.9238 219.53C47.1534 221.717 49.0197 222.987 49.7871 223.018C49.9601 223 50.1231 222.936 50.2552 222.834C50.3873 222.732 50.4824 222.597 50.5284 222.446C50.5743 222.295 50.569 222.136 50.5131 221.987C50.4571 221.839 50.3531 221.71 50.2145 221.615C49.5544 221.036 48.9878 220.376 48.5313 219.656C48.1245 219.094 47.8294 218.474 47.6593 217.822C47.3078 216.521 47.1033 215.193 47.0488 213.856L46.9093 213.072C48.8627 204.38 54.4877 178.869 62.6068 162.575L65.9381 168.735L67.3858 173.296L58.508 192.992L96.3739 192.545L90.7228 172.999L97.5861 152.621C105.007 152.77 124.063 153.021 127.237 151.728C131.231 150.16 151.891 126.71 151.891 126.71C153.237 125.77 154.527 124.765 155.754 123.7C155.754 123.7 157.01 122.752 156.251 122.047Z" fill="#FFBE9D"/>
<path d="M56.8425 178.438C57.9413 175.068 63.5837 158.405 63.5837 158.405C63.5837 158.405 66.3569 171.988 65.6243 173.626C64.9505 175.028 64.1544 176.38 63.2435 177.67C56.8425 186.424 57.6797 190.805 57.6797 190.805L96.3566 189.747C96.4438 184.888 93.2432 173.586 92.5804 171.784C91.9177 169.981 94.124 164.079 94.124 164.079C94.124 164.079 98.4845 160.09 98.3275 158.037C98.2447 156.192 97.9909 154.357 97.5688 152.55L121.115 153.334L120.374 138.991L86.5544 135.95C85.377 138.937 74.7289 137.471 74.7289 137.471C63.2348 137.816 62.5197 139.712 57.7407 143.051C52.9617 146.39 45.0519 175.044 45.0519 175.044L56.8425 178.438Z" fill="#F37A20"/>
<path d="M79.7085 175.044C79.0383 175.152 78.3556 175.183 77.6766 175.138C76.4121 175.138 74.6766 175.06 72.7667 174.888C70.8569 174.715 69.1302 174.472 67.9005 174.253C67.2225 174.174 66.5577 174.022 65.9209 173.798C66.6027 173.798 67.283 173.856 67.9529 173.971C69.1912 174.112 70.9092 174.308 72.8104 174.48C74.7115 174.652 76.4382 174.77 77.6853 174.848C78.3651 174.856 79.0425 174.922 79.7085 175.044Z" fill="#263238"/>
<path d="M82.3596 172.09C81.6891 172.385 80.9801 172.603 80.2492 172.74C76.7699 173.562 73.1803 173.944 69.5836 173.877C68.8394 173.898 68.0951 173.835 67.3685 173.688C68.1031 173.605 68.8435 173.571 69.5836 173.587C70.9528 173.547 72.8365 173.461 74.9121 173.242C76.9876 173.022 78.8364 172.709 80.1446 172.458C80.8711 172.284 81.6117 172.16 82.3596 172.09Z" fill="#263238"/>
<path d="M95.3711 158.907C95.3535 159.504 95.2628 160.098 95.1008 160.678C94.874 161.767 94.5252 163.257 94.0804 164.887C93.6357 166.517 93.2084 168.022 92.8246 169.041C92.6703 169.624 92.4421 170.189 92.1444 170.726C92.193 170.13 92.3159 169.541 92.5107 168.97C92.8421 167.747 93.2171 166.337 93.6357 164.793C94.0543 163.249 94.4554 161.838 94.7868 160.615C94.9049 160.027 95.101 159.453 95.3711 158.907Z" fill="#263238"/>
<path d="M57.2523 176.439C55.2348 176.159 53.2437 175.743 51.296 175.193C49.3058 174.775 47.3528 174.225 45.453 173.547C47.4695 173.832 49.4603 174.248 51.4093 174.794C53.4 175.21 55.3531 175.76 57.2523 176.439Z" fill="#263238"/>
<path d="M97.9873 152.378C97.6584 152.429 97.3221 152.429 96.9931 152.378C96.0822 152.294 95.1878 152.102 94.3333 151.806C92.9067 151.324 91.6079 150.579 90.5206 149.62C89.4332 148.66 88.5812 147.507 88.0194 146.233C87.3984 144.833 87.1332 143.325 87.2433 141.821C87.2821 140.58 87.6951 139.372 88.438 138.325C88.9606 137.62 89.7411 137.102 90.6444 136.86C90.8857 136.8 91.1353 136.771 91.3857 136.773C91.5601 136.773 91.6473 136.773 91.6473 136.773C91.6473 136.773 91.281 136.773 90.6967 136.985C89.868 137.26 89.1652 137.776 88.6996 138.451C87.5136 140.128 87.1822 143.192 88.4467 146.053C89.0353 147.402 89.9566 148.613 91.1415 149.596C92.1123 150.4 93.2305 151.047 94.4467 151.508C95.588 151.913 96.7753 152.205 97.9873 152.378Z" fill="#263238"/>
<path d="M118.316 153.052C118.098 150.649 118.028 148.236 118.106 145.826C118.038 143.418 118.12 141.008 118.351 138.608C118.569 141.008 118.639 143.418 118.56 145.826C118.633 148.237 118.552 150.65 118.316 153.052Z" fill="#263238"/>
<path d="M86.3275 136.828C86.4234 135.081 86.624 133.106 86.624 133.106C86.624 133.106 91.4379 132.628 91.7257 128.16C92.0135 123.693 91.7257 113.386 91.7257 113.386L83.0048 109.374L73.3247 116.216L74.816 138.553L83.6938 139.062C84.3724 139.079 85.0307 138.853 85.5245 138.435C86.0182 138.016 86.307 137.438 86.3275 136.828Z" fill="#FFBE9D"/>
<path d="M87.1908 124.625C87.1908 124.625 87.1908 124.711 87.1123 124.813C87.0475 124.887 86.9635 124.946 86.8678 124.984C86.7721 125.022 86.6675 125.039 86.5629 125.033C86.0048 125.033 85.4641 124.453 85.2723 123.779C85.1811 123.452 85.1811 123.11 85.2723 122.783C85.2902 122.641 85.3474 122.504 85.4387 122.387C85.5301 122.269 85.6527 122.174 85.7955 122.109C85.9128 122.066 86.0445 122.066 86.1618 122.109C86.2487 122.148 86.3192 122.211 86.3624 122.29C86.4234 122.423 86.3624 122.509 86.3624 122.501C86.3624 122.493 86.3623 122.423 86.2751 122.344C86.2296 122.288 86.1625 122.249 86.0869 122.235C86.0113 122.22 85.9323 122.231 85.8653 122.266C85.7583 122.324 85.6694 122.406 85.6069 122.503C85.5444 122.6 85.5103 122.71 85.5077 122.823C85.4343 123.114 85.4343 123.417 85.5077 123.708C85.6821 124.32 86.153 124.813 86.5716 124.86C86.6535 124.87 86.7369 124.865 86.8164 124.845C86.8959 124.825 86.9699 124.79 87.0339 124.743C87.1385 124.68 87.1734 124.617 87.1908 124.625Z" fill="#EB996E"/>
<path d="M94.717 110.972C94.0455 108.919 91.6124 107.9 89.3973 107.336C86.0224 106.474 82.377 106.097 79.0806 107.187C75.7841 108.276 71.8248 110.189 71.8248 113.457C69.8801 113.316 68.7638 114.844 67.9964 116.741C67.5057 117.896 67.2117 119.112 67.1243 120.346C66.8801 124.625 65.5458 130.535 62.4586 133.67C60.7145 135.418 58.2988 136.625 57.3046 138.804C56.4325 140.692 56.886 142.934 56.075 144.846C55.3512 146.531 53.7552 147.73 52.5867 149.196C51.3961 150.859 50.6955 152.766 50.5505 154.739C50.4056 156.712 50.8212 158.685 51.7582 160.474C52.7019 162.217 54.0306 163.769 55.6634 165.036C57.2961 166.303 59.1987 167.257 61.2552 167.842C65.3287 168.955 69.6726 168.994 73.7696 167.951C76.8443 167.291 79.7126 166.012 82.159 164.213C84.6622 162.376 86.3814 159.817 87.0252 156.971C87.6444 153.773 86.6503 150.521 85.909 147.339C83.5892 137.283 84.252 136.758 87.1822 127.423C87.252 127.259 87.2869 127.086 87.3392 126.922C87.3915 126.757 87.4177 126.679 87.4526 126.553C87.5358 126.184 87.5796 125.809 87.5834 125.433C87.1554 125.576 86.6909 125.606 86.2444 125.52C85.7979 125.434 85.3881 125.235 85.0631 124.947C84.7373 124.639 84.5101 124.259 84.4057 123.845C84.3013 123.431 84.3235 122.999 84.4701 122.595C84.6758 122.154 84.9824 121.757 85.37 121.428C85.7576 121.1 86.2175 120.849 86.72 120.691C87.688 120.33 88.7258 120.142 89.6764 119.743C91.6909 118.88 93.0862 117.093 94.0368 115.22C94.8183 113.922 95.0595 112.416 94.717 110.972Z" fill="#263238"/>
<path d="M87.5397 124.837C87.724 125.082 87.8762 125.345 87.9932 125.621C88.2549 126.114 88.6037 126.812 88.9874 127.619L89.0572 127.768H88.874L88.0019 127.839C87.4002 127.839 86.8944 127.941 86.3014 127.933C86.2498 127.922 86.2019 127.9 86.1623 127.869C86.1226 127.837 86.0925 127.797 86.0747 127.752C86.0487 127.681 86.0487 127.604 86.0747 127.533C86.0948 127.427 86.121 127.323 86.1531 127.22L86.3101 126.663C86.389 126.292 86.5118 125.929 86.6764 125.581C86.6602 125.96 86.5988 126.336 86.4932 126.702L86.3712 127.259C86.3276 127.447 86.2491 127.737 86.3712 127.713C86.8072 127.713 87.4264 127.627 88.0019 127.596L88.874 127.525L88.7607 127.698C88.3857 126.914 88.0717 126.177 87.8886 125.668C87.7279 125.408 87.6104 125.128 87.5397 124.837Z" fill="#F37A20"/>
<path d="M57.6796 190.806L96.3565 189.748L113.188 248.796L110.092 316.528H89.6415L92.1443 250.238L77.1881 209.13L79.4904 319.153L58.822 319.428L56.6505 216.011C56.5546 213.135 55.5081 206.653 55.9005 203.8L57.6796 190.806Z" fill="#263238"/>
<path d="M82.3333 209.968C81.7003 210.004 81.0647 209.97 80.4409 209.867C79.2723 209.741 77.6764 209.522 75.9235 209.208C74.1707 208.895 72.6009 208.534 71.4672 208.244C70.8612 208.124 70.2749 207.935 69.723 207.68C69.723 207.562 72.566 208.174 76.0543 208.809C79.5427 209.443 82.3508 209.851 82.3333 209.968Z" fill="#455A64"/>
<path d="M109.883 312.813C109.883 312.923 105.252 313.017 99.5398 313.017C93.8276 313.017 89.1881 312.923 89.1881 312.813C89.1881 312.703 93.8189 312.609 99.5398 312.609C105.261 312.609 109.883 312.695 109.883 312.813Z" fill="#455A64"/>
<path d="M79.3072 316.293C79.3072 316.41 74.8073 316.496 69.2608 316.496C63.7144 316.496 59.2231 316.41 59.2231 316.293C59.2231 316.175 63.7231 316.089 69.2608 316.089C74.7986 316.089 79.3072 316.183 79.3072 316.293Z" fill="#455A64"/>
<path d="M76.6388 316.01C76.5167 316.01 75.976 291.973 75.4266 262.323C74.8771 232.674 74.5545 208.62 74.6679 208.62C74.7812 208.62 75.3394 232.65 75.88 262.315C76.4207 291.981 76.7696 316.01 76.6388 316.01Z" fill="#455A64"/>
<path d="M107.135 312.813C107.126 312.706 107.126 312.598 107.135 312.491V311.551C107.135 310.705 107.205 309.49 107.257 307.946C107.38 304.811 107.554 300.257 107.772 294.677C108.243 283.453 108.906 267.982 109.63 250.904C109.63 250.739 109.63 250.583 109.63 250.442V250.496C105.051 234.038 100.909 219.099 97.9 208.291L94.4117 195.508C94.0105 194.011 93.7053 192.843 93.4873 192.028C93.3827 191.644 93.3129 191.346 93.2518 191.119C93.2179 191.017 93.1974 190.912 93.1908 190.806C93.2361 190.904 93.2711 191.007 93.2954 191.111C93.3652 191.331 93.4524 191.629 93.5745 192.005C93.81 192.789 94.1501 193.98 94.5861 195.469C95.4582 198.494 96.6878 202.852 98.2227 208.221C101.258 219.021 105.444 233.92 110.083 250.402V250.457C110.083 250.598 110.083 250.763 110.083 250.92C109.307 267.998 108.601 283.461 108.086 294.685C107.816 300.273 107.589 304.795 107.432 307.946C107.345 309.513 107.275 310.705 107.231 311.551C107.231 311.951 107.179 312.264 107.17 312.491C107.172 312.599 107.16 312.707 107.135 312.813Z" fill="#455A64"/>
<path d="M100.464 249.062C98.9952 249.496 97.482 249.798 95.9467 249.963C94.063 250.253 92.4584 250.457 91.7345 250.489V250.332C91.97 250.395 92.0921 250.434 92.0921 250.465C92.0921 250.496 91.9438 250.465 91.6996 250.465H91.1764L91.6996 250.324C92.3799 250.144 93.9845 249.846 95.8682 249.54C97.379 249.246 98.9184 249.086 100.464 249.062Z" fill="#455A64"/>
<path d="M100.107 251.312C98.7463 251.368 97.3832 251.313 96.034 251.147C94.6717 251.122 93.3147 250.988 91.9788 250.747C94.7042 250.547 97.4476 250.738 100.107 251.312Z" fill="#455A64"/>
<path opacity="0.2" d="M57.5139 192.052C57.972 192.58 58.5489 193.016 59.2071 193.331C59.8653 193.646 60.5899 193.832 61.3336 193.878C62.8913 194.044 64.467 194.017 66.0167 193.8C76.0021 192.804 86.5805 191.887 96.3565 189.748C83.7026 190.382 70.3336 190.171 57.6796 190.806L57.5488 191.777" fill="black"/>
<g opacity="0.2">
<path opacity="0.2" d="M70.5515 208.079L77.6852 232.956L77.1881 209.13L70.5515 208.079Z" fill="black"/>
</g>
</svg>
